<svg width="32" height="32" viewBox="0 0 32 32" fill="none" xmlns="http://www.w3.org/2000/svg">
  <rect width="32" height="32" rx="6" fill="#09090B"/>
  <path d="M18.07 9.5H24.34C26.9 9.5 29 11.6 29 14.16V20.09H26.16V14.16C26.16 14.1 26.16 14.04 26.16 13.98L19.89 20.08C19.91 20.09 19.93 20.09 19.95 20.09H26.16V22.9H19.95C17.39 22.9 15.25 20.79 15.25 18.23V12.34H18.07V18.23C18.07 18.66 18.1 19.08 18.16 19.49L24.47 12.36C24.28 12.34 24.08 12.34 23.89 12.34H18.07V9.5Z" fill="#10B981"/>
  <path d="M11.61 22.41L2.52 12.34H6.01L11.57 18.11V12.34H14.33V21.17C14.33 22.58 12.62 23.25 11.61 22.41Z" fill="#10B981"/>
</svg>
