<svg width="192" height="192" viewBox="0 0 192 192" fill="none" xmlns="http://www.w3.org/2000/svg">
  <rect width="192" height="192" rx="40" fill="#09090B"/>
  <g clip-path="url(#clip)">
    <path d="M108.416 57H146.013C161.395 57 173.832 69.4373 173.832 84.8192V120.536H158.431V84.8192C158.431 84.4557 158.416 84.0908 158.388 83.7291L120.789 120.529C120.915 120.534 121.041 120.536 121.168 120.536H158.431V135.515H121.168C105.786 135.515 93.1527 123.174 93.1527 107.792V72.1411H108.416V107.792C108.416 108.483 108.469 109.165 108.573 109.833L146.598 72.1823C146.275 72.1556 145.948 72.1411 145.618 72.1411H108.416V57Z" fill="#10B981"/>
    <path d="M69.6596 133.112L15.1259 72.1311H37.1618L69.4422 108.063V72.1311H85.6272V126.482C85.6272 134.811 75.3975 138.753 69.6596 133.112Z" fill="#10B981"/>
  </g>
  <defs>
    <clipPath id="clip">
      <rect width="192" height="192" fill="white"/>
    </clipPath>
  </defs>
</svg>
