<svg width="512" height="512" viewBox="0 0 512 512" fill="none" xmlns="http://www.w3.org/2000/svg">
  <rect width="512" height="512" rx="100" fill="#09090B"/>
  <g clip-path="url(#clip)">
    <path d="M289.11 152H389.37C430.39 152 463.55 185.16 463.55 226.18V321.43H422.55V226.18C422.55 225.21 422.51 224.24 422.43 223.28L322.17 321.35C322.5 321.46 322.84 321.53 323.18 321.53H422.55V361.37H323.18C282.16 361.37 248.73 328.27 248.73 287.25V192.11H289.11V287.25C289.11 289.08 289.25 290.89 289.53 292.68L390.26 192.22C389.39 192.15 388.5 192.11 387.61 192.11H289.11V152Z" fill="#10B981"/>
    <path d="M185.76 353.5L40.34 192.11H99.24L185.12 288.87V192.11H228.76V337.47C228.76 359.87 201.16 370.52 185.76 353.5Z" fill="#10B981"/>
  </g>
  <defs>
    <clipPath id="clip">
      <rect width="512" height="512" fill="white"/>
    </clipPath>
  </defs>
</svg>
